<svg data-name="Layer 1" xmlns="http://www.w3.org/2000/svg" width="64" height="64" viewBox="0 0 64 64"><title>Artboard 107</title><path d="M32 0a32 32 0 1 0 32 32A32 32 0 0 0 32 0zm0 2a30 30 0 0 1 26 15H34v12.5h-4V17H6A30 30 0 0 1 32 2zM2 32a29.85 29.85 0 0 1 3-13h23v10.5H13.82l4.28-4.41-1.43-1.4-6.47 6.66 6.75 7 1.43-1.4-4.28-4.45H28v9.56H3.4A29.81 29.81 0 0 1 2 32zm30 30A30.05 30.05 0 0 1 4.12 43.06h9.58V47H9.3v2h10.81v-2H15.7v-3.94H30V31.5h4v11.56h14.3V47h-4.41v2H54.7v-2h-4.4v-3.94h9.58A30.05 30.05 0 0 1 32 62zm4-20.94V31.5h14.13l-4.29 4.41 1.44 1.4 6.46-6.66-6.74-7-1.44 1.4 4.28 4.41H36V19h23a30 30 0 0 1 1.6 22.06z" fill="#0855b4"/></svg>