<svg data-name="Layer 1" xmlns="http://www.w3.org/2000/svg" width="64" height="64" viewBox="0 0 64 64"><title>Artboard 548</title><path d="M32 0a32 32 0 1 0 32 32A32 32 0 0 0 32 0zm0 62a30 30 0 1 1 30-30 30 30 0 0 1-30 30zM20.09 25.72A3.86 3.86 0 0 0 19 24a44.7 44.7 0 0 1 8.67-3.51 39.7 39.7 0 0 1 15.5-1.59 3.93 3.93 0 0 0-.56 2 26.74 26.74 0 0 0-3-.16 40.92 40.92 0 0 0-11.4 1.73 42.43 42.43 0 0 0-8.12 3.25zm22 14.94a46 46 0 0 1-7.71 3 42.94 42.94 0 0 1-11.95 1.82 29.11 29.11 0 0 1-3.82-.24 3.92 3.92 0 0 0 .63-2 38.15 38.15 0 0 0 14.58-1.55A42.06 42.06 0 0 0 40.89 39a3.89 3.89 0 0 0 1.19 1.66zm6.2-4a3.86 3.86 0 0 0-1-1.79c3.52-3 5.35-6.2 4.56-8.91a5.41 5.41 0 0 0-2.16-2.84 3.76 3.76 0 0 0 .69-1.94 7.57 7.57 0 0 1 3.39 4.22c1.02 3.6-1.15 7.72-5.49 11.28zM12.15 40.9a3.87 3.87 0 0 0-.66 2 7.5 7.5 0 0 1-3.23-4.12c-1-3.35.82-7.09 4.52-10.46A4 4 0 0 0 14 30c-3 2.77-4.53 5.73-3.8 8.24a5.21 5.21 0 0 0 1.95 2.66zm7.15-14a2.89 2.89 0 1 1-2.89-2.9 2.89 2.89 0 0 1 2.89 2.94zm-1.05 16.2a2.89 2.89 0 1 1-2.89-2.9 2.9 2.9 0 0 1 2.89 2.9zm29.17-5.44a2.89 2.89 0 1 1-2.88-2.9 2.89 2.89 0 0 1 2.88 2.9zM43.6 20.9a2.89 2.89 0 1 1 2.89 2.9 2.9 2.9 0 0 1-2.89-2.9z" fill="#0855b4"/></svg>