<svg data-name="Layer 1" xmlns="http://www.w3.org/2000/svg" width="64" height="64" viewBox="0 0 64 64"><title>Artboard 253</title><path d="M32 2A30 30 0 1 1 2 32 30 30 0 0 1 32 2m0-2a32 32 0 1 0 32 32A32 32 0 0 0 32 0zm-7.07 28.84a3.1 3.1 0 0 0-2.66-1.52c-1.37 0-2.46 1-3 2.78h4.07v1.78H19v1.85h4.4v1.78h-4.13c.52 1.89 1.65 2.89 3.09 2.89A3.24 3.24 0 0 0 25 36.79l1.63 1.52a5.2 5.2 0 0 1-4.35 2.39c-2.9 0-4.94-2-5.66-5.19h-1.73v-1.78h1.53v-.93-.92h-1.53V30.1h1.81c.76-3.1 2.79-5.1 5.6-5.1a5.16 5.16 0 0 1 4.35 2.22zm10.59-5.51h2.13l-8.32 19.72H27.2zm11.65 5.45a6.2 6.2 0 0 0-2.48-1.3v4.27c2.91 1.11 4.07 2.41 4.07 4.54v.05c0 2.25-1.64 3.82-4 4.12v2.17H43v-2.17a7.74 7.74 0 0 1-4.53-2.06l1.39-1.85A6.32 6.32 0 0 0 43 38.27V33.8c-2.79-1.07-4-2.24-4-4.46 0-2.19 1.62-3.75 4-4.06v-1.36h1.74v1.36a6.78 6.78 0 0 1 3.74 1.63zM43 31.12v-3.71a1.76 1.76 0 0 0-1.57 1.76c.03.83.38 1.37 1.57 1.95zm1.66 3.28v3.89a1.85 1.85 0 0 0 1.65-1.85c.03-.86-.31-1.44-1.62-2.04z" fill="#0855b4"/></svg>